HIERARCHY
	ROOT Hips
	{
		OFFSET 0 0 0 
		CHANNELS 6 Xposition Yposition Zposition Zrotation Xrotation Yrotation
		JOINT LHipJoint
		{
			OFFSET 0 0 0 
			CHANNELS 3 Zrotation Xrotation Yrotation
			JOINT LeftUpLeg
			{
				OFFSET 0.0783705 -0.0912565 0.0336595 
				CHANNELS 3 Zrotation Xrotation Yrotation
				JOINT LeftLeg
				{
					OFFSET 0.117854 -0.323802 0 
					CHANNELS 3 Zrotation Xrotation Yrotation
					JOINT LeftFoot
					{
						OFFSET 0.135318 -0.371784 0 
						CHANNELS 3 Zrotation Xrotation Yrotation
						JOINT LeftToeBase
						{
							OFFSET 0.0102135 -0.028061 0.104268 
							CHANNELS 3 Zrotation Xrotation Yrotation
							End Site
							{
								OFFSET 0 -0 0.0542675
							}
						}
					}
				}
			}
		}
		JOINT RHipJoint
		{
			OFFSET 0 0 0 
			CHANNELS 3 Zrotation Xrotation Yrotation
			JOINT RightUpLeg
			{
				OFFSET -0.075711 -0.0912565 0.0336595 
				CHANNELS 3 Zrotation Xrotation Yrotation
				JOINT RightLeg
				{
					OFFSET -0.124412 -0.341819 0 
					CHANNELS 3 Zrotation Xrotation Yrotation
					JOINT RightFoot
					{
						OFFSET -0.135017 -0.370955 0 
						CHANNELS 3 Zrotation Xrotation Yrotation
						JOINT RightToeBase
						{
							OFFSET -0.009875 -0.0271315 0.111076 
							CHANNELS 3 Zrotation Xrotation Yrotation
							End Site
							{
								OFFSET -0 -0 0.0574575
							}
						}
					}
				}
			}
		}
		JOINT LowerBack
		{
			OFFSET 0 0 0 
			CHANNELS 3 Zrotation Xrotation Yrotation
			JOINT Spine
			{
				OFFSET -0.0007835 0.106437 -0.007921 
				CHANNELS 3 Zrotation Xrotation Yrotation
				JOINT Spine1
				{
					OFFSET 0.003049 0.106663 -0.0005215 
					CHANNELS 3 Zrotation Xrotation Yrotation
					JOINT Neck
					{
						OFFSET 0 0 0 
						CHANNELS 3 Zrotation Xrotation Yrotation
						JOINT Neck1
						{
							OFFSET -0.00252 0.089216 0.0066935 
							CHANNELS 3 Zrotation Xrotation Yrotation
							JOINT Head
							{
								OFFSET -9e-005 0.08844 -0.0166515 
								CHANNELS 3 Zrotation Xrotation Yrotation
								End Site
								{
									OFFSET 0.000367 0.0906245 -0.0063595
								}
							}
						}
					}
					JOINT LeftShoulder
					{
						OFFSET 0 0 0 
						CHANNELS 3 Zrotation Xrotation Yrotation
						JOINT LeftArm
						{
							OFFSET 0.1861 0.047094 -0.0271585 
							CHANNELS 3 Zrotation Xrotation Yrotation
							JOINT LeftForeArm
							{
								OFFSET 0.257301 -0 0 
								CHANNELS 3 Zrotation Xrotation Yrotation
								JOINT LeftHand
								{
									OFFSET 0.182226 -0 -0 
									CHANNELS 3 Zrotation Xrotation Yrotation
									JOINT LeftFingerBase
									{
										OFFSET 0 0 0 
										CHANNELS 3 Zrotation Xrotation Yrotation
										JOINT LFingers
										{
											OFFSET 0.028114 -0 0 
											CHANNELS 3 Zrotation Xrotation Yrotation
											End Site
											{
												OFFSET 0.022666 -0 0
											}
										}
									}
									JOINT LThumb
									{
										OFFSET 0 0 0 
										CHANNELS 3 Zrotation Xrotation Yrotation
										End Site
										{
											OFFSET 0.0230125 -0 0.0230125
										}
									}
								}
							}
						}
					}
					JOINT RightShoulder
					{
						OFFSET 0 0 0 
						CHANNELS 3 Zrotation Xrotation Yrotation
						JOINT RightArm
						{
							OFFSET -0.165127 0.0613395 -0.0234705 
							CHANNELS 3 Zrotation Xrotation Yrotation
							JOINT RightForeArm
							{
								OFFSET -0.266957 -0 0 
								CHANNELS 3 Zrotation Xrotation Yrotation
								JOINT RightHand
								{
									OFFSET -0.178239 -0 -0 
									CHANNELS 3 Zrotation Xrotation Yrotation
									JOINT RightFingerBase
									{
										OFFSET 0 0 0 
										CHANNELS 3 Zrotation Xrotation Yrotation
										JOINT RFingers
										{
											OFFSET -0.0428735 -0 0 
											CHANNELS 3 Zrotation Xrotation Yrotation
											End Site
											{
												OFFSET -0.034566 -0 0
											}
										}
									}
									JOINT RThumb
									{
										OFFSET 0 0 0 
										CHANNELS 3 Zrotation Xrotation Yrotation
										End Site
										{
											OFFSET -0.0350935 -0 0.0350935
										}
									}
								}
							}
						}
					}
				}
			}
		}
	}
MOTION
Frames:	15
Frame Time:	0.0166667
-0.138615 0.88827 -0.05914 -6.7064 -1.07456 65.8995 -0 0 -0 -16.3671 -22.241 -13.408 -2.17772 25.0337 9.78677 -0.668036 -2.59077 -10.0275 -1.0151 -17.498 -6.58895 -0 0 -0 28.5804 -10.1871 -14.4345 11.1022 48.5393 -24.3283 0.0961733 -2.7887 2.37822 0.970903 -17.1283 6.44038 -1.69983 9.76364 3.26413 -1.50499 2.23919 4.15908 -1.14451 -3.11432 2.09359 -5.74668 -7.82372 2.30931 -6.42879 27.4612 6.88288 0.222821 10.0407 2.15492 -0 0 -0 -28.253 -39.0297 -6.92452 33.3338 -44.6892 -107.864 0 -24.1334 0 14.6635 2.72972 10.3154 -7.125 0 0 -11.2155 0.907348 40.4341 -0 0 -0 31.8283 -41.4389 11.7183 -33.1707 -45.0396 108.618 -0 1.3234 -0 -24.1829 -8.29401 17.8088 7.125 0 -0 0.859025 0.592812 -10.3931 
-0.143075 0.88721 -0.06407 -6.76257 -1.20838 65.573 -0 0 -0 -16.3605 -22.913 -13.4538 -2.24589 25.3884 9.94682 -0.64006 -2.3325 -10.1167 -0.969654 -17.1176 -6.43603 -0 0 -0 30.172 -8.50462 -13.2874 9.78675 46.4899 -22.545 0.117344 -2.7741 2.75303 0.632589 -13.9239 5.17712 -1.28336 9.68312 3.55126 -1.80598 2.01838 4.56664 -1.75077 -3.23452 2.29095 -3.91461 -7.88472 2.442 -8.57807 27.418 7.35613 -0.746595 10.1714 2.33065 -0 0 -0 -27.4929 -39.2118 -6.34388 32.8801 -45.6245 -109.898 0 -24.9456 0 14.3974 2.64916 10.2068 -7.125 0 0 -11.4785 0.956357 40.3012 -0 0 -0 32.2702 -40.144 11.8346 -32.8796 -45.6255 109.9 -0 2.8893 -0 -27.7726 -11.2068 20.2565 7.125 0 -0 -2.4456 -1.91478 -6.96271 
-0.147755 0.88596 -0.069845 -6.92146 -0.937302 65.1566 -0 0 -0 -16.6172 -23.7812 -13.3566 -2.26935 25.5087 10.0014 -0.567729 -1.65486 -10.4218 -0.720612 -14.8339 -5.5316 -0 0 -0 30.9439 -7.33559 -12.2579 8.71483 44.6124 -21.0437 0.128012 -2.45968 3.11027 0.554574 -13.0585 4.84272 -1.39616 9.14918 3.69335 -1.83139 1.89627 4.75141 -1.70293 -3.06925 2.38302 -4.50928 -8.29036 2.64829 -8.41236 27.3758 7.73069 -0.498431 10.2144 2.44782 -0 0 -0 -27.1837 -40.0248 -5.37488 32.4082 -46.4837 -111.83 0 -25.39 0 15.1344 2.95291 10.784 -7.125 0 0 -10.739 0.76896 40.9523 -0 0 -0 32.2949 -39.4651 12.6431 -32.1576 -46.9028 112.797 -0 1.2029 -0 -27.221 -9.69825 18.1332 7.125 0 -0 -1.73531 -1.23818 -9.50124 
-0.15269 0.88495 -0.07597 -6.8592 -0.316716 64.6608 -0 0 -0 -17.3973 -24.459 -13.3735 -2.26694 25.4965 9.99584 -0.492803 -1.24861 -10.2605 -0.652829 -14.1389 -5.26059 -0 0 -0 30.9976 -6.21243 -11.1089 7.7329 42.6951 -19.6214 0.109169 -1.88166 3.148 0.461364 -11.9342 4.41194 -1.60018 8.92106 3.99166 -2.14109 1.63088 5.11598 -1.96086 -3.1963 2.56369 -4.86331 -8.33523 2.66143 -8.10865 27.2589 7.71765 -0.336239 10.157 2.44453 -0 0 -0 -26.9215 -40.7986 -5.11618 32.1666 -46.888 -112.763 0 -25.9457 0 15.6856 3.01516 10.6092 -7.125 0 0 -10.2059 0.753281 40.8233 -0 0 -0 32.2479 -38.9535 12.6979 -31.5608 -47.8157 114.966 -0 1.2156 -0 -27.8757 -9.63816 17.5644 7.125 0 -0 -2.21814 -1.55232 -10.0308 
-0.15791 0.88391 -0.082325 -6.75289 0.322994 64.4919 -0 0 -0 -17.8391 -26.3069 -10.8591 -2.2416 25.3661 9.93686 -0.369697 0.480309 -12.7752 -0.373716 -10.7608 -3.96646 -0 0 -0 31.1274 -5.0813 -9.60129 6.7979 40.6571 -18.2154 0.046284 -1.17332 2.09334 0.237795 -8.6089 3.15872 -1.75192 8.66286 4.04877 -2.38581 1.46481 5.17329 -2.12979 -3.21471 2.59308 -4.72122 -8.34447 2.66807 -8.48785 27.078 7.78115 -0.483624 10.1154 2.4561 -0 0 -0 -26.3123 -41.9658 -4.59547 32.1203 -46.9631 -112.938 0 -27.5442 0 16.0465 3.30973 11.35 -7.125 0 0 -9.82055 0.586207 41.6174 -0 0 -0 32.8387 -38.419 13.471 -31.4172 -48.0202 115.464 -0 1.5313 -0 -28.1631 -10.4974 18.7941 7.125 0 -0 -2.59478 -1.9172 -8.56453 
-0.16348 0.88218 -0.088685 -6.92429 0.812765 64.393 -0 0 -0 -18.2367 -28.0347 -9.3387 -2.23769 25.3462 9.92777 -0.283377 1.33155 -14.2979 -0.387714 -10.9568 -4.04058 -0 0 -0 31.1781 -4.36071 -8.47842 5.93703 38.5587 -16.8654 0.0482211 -0.634542 2.79887 0.139289 -6.60258 2.41452 -1.52286 8.11918 4.03612 -2.62385 1.32884 5.1842 -2.46424 -3.01381 2.59739 -4.79551 -8.68709 2.64314 -8.36886 27.0831 7.74369 -0.427962 10.1758 2.43116 -0 0 -0 -26.1992 -43.1489 -4.57711 32.2332 -46.7786 -112.509 0 -29.8221 0 16.384 3.59844 12.0503 -7.125 0 0 -9.45308 0.437809 42.3722 -0 0 -0 32.8315 -38.7127 14.1649 -31.5631 -47.8126 114.958 -0 1.6837 -0 -28.2025 -10.035 18.001 7.125 0 -0 -2.53901 -1.81465 -9.46919 
-0.16979 0.88083 -0.095025 -6.6249 1.19285 64.2097 -0 0 -0 -18.9618 -28.534 -9.50688 -2.24199 25.3681 9.93769 -0.127105 1.90692 -13.8767 -0.292256 -9.53287 -3.50425 -0 0 -0 30.9035 -3.24379 -7.37568 5.24146 36.6741 -15.7261 0.0525484 -0.496024 3.20192 0.0295545 -3.04803 1.11047 -1.43667 8.27796 4.20559 -2.91512 1.15993 5.39931 -2.87297 -3.22991 2.70159 -4.76554 -8.74567 2.54926 -8.05063 27.1211 7.52346 -0.366674 10.1862 2.365 -0 0 -0 -26.0724 -43.811 -5.15586 32.639 -46.0763 -110.906 0 -30.6134 0 16.548 3.69718 12.2446 -7.125 0 0 -9.28039 0.394028 42.5899 -0 0 -0 33.2134 -39.4609 13.9477 -31.81 -47.4478 114.081 -0 2.0439 -0 -27.2629 -7.14041 13.5615 7.125 0 -0 -1.29062 -0.754707 -14.6878 
-0.176345 0.87833 -0.102815 -6.2773 1.77186 64.0242 -0 0 -0 -20.077 -28.9492 -9.89415 -2.21099 25.2074 9.86511 0.0218603 2.47992 -13.4539 -0.305481 -9.74259 -3.58294 -0 0 -0 30.1626 -2.21674 -6.83644 4.74801 35.2141 -14.8855 0.152057 -2.11673 3.8026 0.00150423 -0.699093 0.254419 -1.39873 8.37827 4.05515 -2.98775 1.09598 5.19535 -2.9621 -3.35106 2.59865 -5.0894 -8.91867 2.59773 -8.12737 27.0883 7.67935 -0.2992 10.2044 2.39084 -0 0 -0 -25.8439 -45.6673 -4.94703 32.7431 -45.8845 -110.476 0 -33.2159 0 15.5436 5.78187 19.91 -7.125 0 0 -9.61763 -0.914545 50.381 -0 0 -0 32.7368 -39.4499 14.5498 -32.4836 -46.3531 111.532 -0 0.7518 -0 -27.2465 -8.70743 16.3823 7.125 0 -0 -1.55989 -1.03318 -11.4892 
-0.183245 0.87782 -0.10849 -5.90644 2.05297 63.9712 -0 0 -0 -20.8463 -28.8328 -10.6908 -2.15117 24.8937 9.72392 0.142494 2.91035 -12.6649 -0.289272 -9.48484 -3.48622 -0 0 -0 29.6975 -1.28972 -5.908 4.46639 34.3283 -14.3916 0.362268 -3.85117 5.41777 0.00323468 -1.00638 0.366357 -1.59615 8.42235 4.04651 -2.87097 1.11973 5.16809 -2.73035 -3.38036 2.5871 -5.75488 -7.85262 2.54851 -7.07242 25.8101 7.14917 0.00202258 9.47632 2.28064 -0 0 -0 -26.3022 -45.4835 -5.12161 33.2671 -44.8347 -108.176 0 -31.0922 0 16.5261 3.32842 11.0715 -7.125 0 0 -9.36223 0.59846 41.3751 -0 0 -0 31.8217 -39.8006 14.699 -32.987 -45.415 109.436 0 -0.6387 0 -26.1183 -9.19615 18.054 7.125 0 -0 -0.802754 -0.566528 -9.79008 
-0.190455 0.876655 -0.11537 -6.07639 1.80044 64.1263 -0 0 -0 -21.1215 -29.0408 -11.9397 -2.09643 24.6015 9.59303 0.269337 3.41805 -11.5801 -0.293555 -9.55405 -3.51218 -0 0 -0 29.7761 -0.968898 -5.69302 4.23756 33.5778 -13.982 0.658945 -5.57837 7.059 0.000719515 0.489098 -0.178006 -0.758657 8.41996 3.87705 -2.70978 1.00882 5.01818 -3.01832 -3.44373 2.50032 -4.65766 -8.07054 2.2706 -8.1747 26.1614 6.92777 -0.587823 9.71799 2.14905 -0 0 -0 -26.33 -45.2458 -5.23799 33.2714 -44.8252 -108.155 0 -29.8181 0 16.8814 4.11484 13.3034 -7.125 0 0 -8.88444 0.199754 43.7225 -0 0 -0 31.381 -39.8508 14.8303 -33.3125 -44.7359 107.964 0 -0.0935 0 -26.4948 -9.17026 17.73 7.125 0 -0 -1.07957 -0.753466 -10.0896 
-0.19809 0.87437 -0.121495 -5.99551 1.80273 64.2257 -0 0 -0 -21.572 -29.7491 -12.2729 -2.11142 24.6819 9.62906 0.319892 3.66284 -11.4343 -0.460132 -11.9184 -4.40596 -0 0 -0 29.8851 -0.195466 -5.59033 3.86866 32.3022 -13.3036 0.967506 -8.05341 7.88192 0.0187583 -2.43101 0.885397 -0.478777 8.49248 3.81813 -2.63303 1.04974 4.96724 -3.08982 -3.42752 2.47192 -4.96599 -7.91583 2.00188 -7.08474 25.6308 6.19992 -0.32152 9.44771 1.91661 -0 0 -0 -26.4697 -44.8033 -5.65874 33.1221 -45.141 -108.838 0 -30.0731 0 15.7281 3.01516 10.5796 -7.125 0 0 -10.1654 0.755178 40.7962 -0 0 -0 30.783 -40.1143 14.4264 -33.3732 -44.6016 107.677 -0 1.1204 -0 -26.3012 -8.93904 17.4519 7.125 0 -0 -0.883534 -0.608759 -10.4372 
-0.205925 0.87296 -0.12793 -6.07156 1.63748 64.507 -0 0 -0 -21.9082 -30.0367 -13.4523 -2.08667 24.5487 9.56955 0.359749 3.85507 -10.3148 -0.564759 -13.1755 -4.88776 -0 0 -0 30.1284 0.393498 -4.99802 3.51532 30.9956 -12.6302 1.19211 -9.12433 8.67449 0.072725 4.7791 -1.74376 0.0360914 8.69432 3.68976 -2.39224 1.01725 4.84617 -3.1313 -3.55838 2.40253 -4.56187 -8.51432 1.6505 -7.52148 26.2425 5.87315 -0.574957 9.80676 1.72065 -0 0 -0 -26.8526 -43.7221 -5.9449 32.7029 -45.9589 -110.642 0 -30.5577 0 16.2923 3.38762 11.4296 -7.125 0 0 -9.57514 0.553528 41.7224 -0 0 -0 29.6491 -40.4898 13.3301 -33.0917 -45.2034 108.974 -0 0.8934 -0 -25.6649 -8.84788 17.7498 7.125 0 -0 -0.384059 -0.266806 -10.211 
-0.21359 0.871865 -0.1343 -6.35762 1.19458 64.8595 -0 0 -0 -21.7295 -30.7726 -13.5663 -2.03646 24.276 9.44821 0.307631 3.56735 -10.1658 -0.923098 -16.7177 -6.27606 -0 0 -0 30.7828 0.628101 -4.78719 3.24903 29.949 -12.1052 1.44946 -10.4396 9.41809 0.110877 5.89466 -2.15359 0.855259 8.74304 3.44285 -1.94144 1.03395 4.60835 -3.08869 -3.55641 2.27368 -5.32117 -9.14981 1.40164 -7.16961 26.5286 5.64912 -0.344588 10.0116 1.55265 -0 0 -0 -27.4496 -42.4798 -5.97894 32.1723 -46.8788 -112.741 0 -30.0025 0 16.4985 3.49117 11.6178 -7.125 0 0 -9.36292 0.505474 41.9374 -0 0 -0 28.8851 -40.6133 12.7183 -32.6632 -46.0319 110.806 -0 0.7252 -0 -25.7256 -8.91971 17.8383 7.125 0 -0 -0.44614 -0.3112 -10.1013 
-0.22145 0.870785 -0.139815 -6.43998 1.00392 64.9508 -0 0 -0 -21.6956 -31.3061 -13.9053 -2.01024 24.1315 9.38414 0.101645 2.2477 -8.84176 -2.09702 -24.6046 -9.59448 -0 0 -0 31.2615 0.940022 -4.15576 3.00816 28.9502 -11.6152 1.49868 -11.9685 9.11528 0.159657 7.06438 -2.58524 1.06674 8.95339 3.07591 -1.56074 1.06081 4.15391 -2.76661 -3.68946 2.04404 -5.44215 -9.31286 1.6387 -7.34598 26.1255 5.99445 -0.321672 9.89979 1.68672 -0 0 -0 -26.738 -42.0423 -4.85847 31.6488 -47.6878 -114.656 0 -29.8447 0 17.2086 3.8938 12.3668 -7.125 0 0 -8.62029 0.335911 42.7853 -0 0 -0 29.0773 -40.4275 12.9581 -32.1139 -46.9733 112.962 0 -0.0772 0 -26.0693 -8.91453 17.5753 7.125 0 -0 -0.703085 -0.486178 -10.338 
-0.229045 0.869695 -0.144285 -6.53452 0.893475 64.8298 -0 0 -0 -21.6936 -31.6585 -14.6275 -2.00202 24.0864 9.36412 0.442612 4.35808 -9.50464 -1.08638 -18.0757 -6.82238 -0 0 -0 31.8242 1.25622 -3.52255 2.7938 28.0151 -11.1658 1.2808 -13.6549 7.83457 0.144901 6.73403 -2.4631 0.482822 8.73886 2.84819 -0.949887 1.11971 3.81633 -1.74452 -3.61114 1.88835 -5.29896 -9.40046 1.6302 -7.75144 25.9275 6.03028 -0.480246 9.86406 1.67629 -0 0 -0 -26.6082 -41.5436 -3.95742 31.1272 -48.4172 -116.445 0 -29.1672 0 17.0575 3.77559 12.1125 -7.125 0 0 -8.7848 0.385714 42.5056 -0 0 -0 29.0998 -40.4453 13.1293 -31.5438 -47.8403 115.025 0 -1.8415 0 -26.2329 -9.48538 18.4912 7.125 0 -0 -0.952944 -0.685419 -9.27597 
